<?xml version="1.0" encoding="UTF-8"?>
<svg width="24px" height="24px" viewBox="0 0 24 24" version="1.1" xmlns="http://www.w3.org/2000/svg" xmlns:xlink="http://www.w3.org/1999/xlink">
    <!-- Generator: Sketch 48.2 (47327) - http://www.bohemiancoding.com/sketch -->
    <title>search</title>
    <desc>Created with Sketch.</desc>
    <defs></defs>
    <g id="Page-1" stroke="none" stroke-width="1" fill="none" fill-rule="evenodd">
        <g id="search">
            <path d="M16.2938822,14.5786164 L15.3905089,14.5786164 L15.0703259,14.2698685 C16.1909663,12.9662664 16.8656375,11.2738708 16.8656375,9.43281875 C16.8656375,5.32761578 13.5380217,2 9.43281875,2 C5.32761578,2 2,5.32761578 2,9.43281875 C2,13.5380217 5.32761578,16.8656375 9.43281875,16.8656375 C11.2738708,16.8656375 12.9662664,16.1909663 14.2698685,15.0703259 L14.5786164,15.3905089 L14.5786164,16.2938822 L20.2961692,22 L22,20.2961692 L16.2938822,14.5786164 Z M9.43281875,14.5786164 C6.58547742,14.5786164 4.28702115,12.2801601 4.28702115,9.43281875 C4.28702115,6.58547742 6.58547742,4.28702115 9.43281875,4.28702115 C12.2801601,4.28702115 14.5786164,6.58547742 14.5786164,9.43281875 C14.5786164,12.2801601 12.2801601,14.5786164 9.43281875,14.5786164 Z" id="Shape" fill="rgb(106, 158, 236)" fill-rule="nonzero"></path>
            <polygon id="BG" points="0 0 24 0 24 24 0 24"></polygon>
        </g>
    </g>
</svg>
